<?xml version="1.0" encoding="utf-8"?>
<!-- Generator: Adobe Illustrator 16.0.0, SVG Export Plug-In . SVG Version: 6.00 Build 0)  -->
<!DOCTYPE svg PUBLIC "-//W3C//DTD SVG 1.1//EN" "http://www.w3.org/Graphics/SVG/1.1/DTD/svg11.dtd">
<svg version="1.1" id="Ebene_1" xmlns="http://www.w3.org/2000/svg" xmlns:xlink="http://www.w3.org/1999/xlink" x="0px" y="0px"
	 width="432.693px" height="48.11px" viewBox="0 0 432.693 48.11" enable-background="new 0 0 432.693 48.11" xml:space="preserve">
<path fill="#222124" d="M199.403,38.819c0.714-1.841,1.076-3.834,1.076-5.923c0-2.013-0.347-3.751-1.031-5.167
	c-0.678-1.401-1.589-2.603-2.707-3.57c-1.088-0.942-2.337-1.732-3.713-2.348c-1.309-0.585-2.67-1.12-4.048-1.59
	c-1.353-0.461-2.674-0.907-3.964-1.337c-1.215-0.404-2.313-0.888-3.264-1.437c-0.887-0.511-1.604-1.13-2.134-1.839
	c-0.483-0.647-0.719-1.464-0.719-2.499c0-0.841,0.152-1.629,0.453-2.344c0.298-0.709,0.729-1.312,1.319-1.839
	c0.594-0.533,1.358-0.964,2.27-1.284c0.932-0.326,2.031-0.491,3.267-0.491c1.318,0,2.444,0.16,3.344,0.476
	c0.946,0.332,1.76,0.698,2.419,1.09c0.687,0.408,1.256,0.782,1.694,1.113c0.664,0.502,1.275,0.746,1.872,0.746
	c0.564,0,1.051-0.15,1.445-0.446c0.321-0.241,0.604-0.57,0.865-1.004l1.862-3.641l-0.554-0.539c-1.645-1.6-3.593-2.839-5.789-3.682
	C191.185,0.425,188.744,0,186.115,0c-2.365,0-4.499,0.374-6.342,1.111c-1.849,0.74-3.428,1.746-4.695,2.989
	c-1.269,1.246-2.25,2.694-2.918,4.303c-0.669,1.608-1.007,3.296-1.007,5.019c0,2.131,0.344,3.963,1.021,5.445
	c0.675,1.477,1.579,2.729,2.688,3.722c1.082,0.969,2.332,1.77,3.717,2.377c1.319,0.579,2.687,1.094,4.062,1.531l3.959,1.256
	c1.207,0.383,2.293,0.854,3.228,1.398c0.871,0.508,1.581,1.142,2.108,1.885c0.486,0.685,0.733,1.606,0.733,2.739
	c0,1.09-0.185,2.086-0.548,2.958c-0.358,0.861-0.88,1.609-1.548,2.224c-0.678,0.623-1.523,1.115-2.513,1.463
	c-1.014,0.357-2.196,0.538-3.517,0.538c-1.599,0-2.955-0.213-4.031-0.635c-1.129-0.441-2.098-0.93-2.879-1.451
	c-0.813-0.542-1.497-1.042-2.031-1.488c-0.767-0.639-1.479-0.949-2.178-0.949c-0.499,0-0.961,0.137-1.372,0.405
	c-0.347,0.226-0.646,0.51-0.888,0.843l-2.222,3.642l0.547,0.581c1.785,1.896,3.966,3.419,6.48,4.527
	c2.521,1.112,5.341,1.676,8.385,1.676c2.506,0,4.785-0.394,6.773-1.171c2-0.783,3.716-1.875,5.099-3.247
	C197.613,42.317,198.683,40.678,199.403,38.819z"/>
<polygon fill="#222124" points="317.104,40.896 297.631,40.896 297.631,1.005 289.442,1.005 289.442,48.11 317.104,48.11 "/>
<polygon fill="#222124" points="370.407,8.062 370.407,1.005 340.578,1.005 340.578,48.11 370.407,48.11 370.407,41.053 
	348.797,41.053 348.797,27.787 366.292,27.787 366.292,20.919 348.797,20.919 348.797,8.062 "/>
<path fill="#222124" d="M425.427,1.005c-0.795,0-1.464,0.248-1.987,0.738c-0.4,0.375-0.726,0.781-0.957,1.192L412.212,20.43
	c-0.348,0.59-0.651,1.169-0.906,1.726c-0.256-0.546-0.557-1.123-0.901-1.726l-10.3-17.49c-0.288-0.497-0.637-0.924-1.036-1.271
	c-0.51-0.441-1.173-0.664-1.974-0.664h-7.202l17.306,28.448V48.11h8.156V29.453l17.339-28.448H425.427z"/>
<path fill="#222124" d="M244.127,0.762c-13.074,0-23.674,10.599-23.674,23.674c0,13.075,10.6,23.674,23.674,23.674
	c13.075,0,23.675-10.599,23.675-23.674C267.802,11.361,257.202,0.762,244.127,0.762z M244.127,40.064
	c-8.617,0-15.628-7.011-15.628-15.628c0-8.617,7.011-15.628,15.628-15.628c8.618,0,15.629,7.011,15.629,15.628
	C259.756,33.053,252.745,40.064,244.127,40.064z"/>
<g>
	<path fill="#3E96DB" d="M23.339,47.805c0.404,0,0.809-0.154,1.117-0.462c0.616-0.617,0.616-1.617,0-2.234
		c-0.309-0.308-0.713-0.462-1.117-0.462s-0.809,0.154-1.117,0.462c-0.616,0.617-0.616,1.617,0,2.234
		C22.53,47.65,22.935,47.805,23.339,47.805z"/>
	<circle fill="#3E96DB" cx="34.219" cy="35.345" r="1.58"/>
	<path fill="#3E96DB" d="M23.339,26.045c0.404,0,0.809-0.154,1.117-0.463c0.616-0.617,0.616-1.617,0-2.234
		c-0.309-0.309-0.713-0.463-1.117-0.463s-0.809,0.154-1.117,0.463c-0.616,0.617-0.616,1.617,0,2.234
		C22.53,25.891,22.935,26.045,23.339,26.045z"/>
	<path fill="#3E96DB" d="M23.339,4.286c0.404,0,0.809-0.154,1.117-0.462c0.616-0.617,0.616-1.617,0-2.234
		c-0.309-0.308-0.713-0.462-1.117-0.462s-0.809,0.154-1.117,0.462c-0.616,0.617-0.616,1.617,0,2.234
		C22.53,4.131,22.935,4.286,23.339,4.286z"/>
	<circle fill="#3E96DB" cx="1.579" cy="46.225" r="1.58"/>
	<circle fill="#3E96DB" cx="12.459" cy="35.345" r="1.58"/>
	<circle fill="#3E96DB" cx="1.579" cy="24.466" r="1.58"/>
	<circle fill="#3E96DB" cx="12.459" cy="13.586" r="1.58"/>
	<circle fill="#3E96DB" cx="1.579" cy="2.706" r="1.58"/>
	<path fill="#1A5EAB" d="M64.974,24.466c0,0.5,0.198,0.979,0.552,1.333l21.76,21.759c0.354,0.354,0.833,0.552,1.332,0.552h43.52
		c1.041,0,1.885-0.844,1.885-1.885V2.706c0-1.041-0.844-1.885-1.885-1.885h-43.52c-0.499,0-0.979,0.199-1.332,0.552l-21.76,21.76
		C65.172,23.486,64.974,23.966,64.974,24.466z"/>
	<path fill="#3E96DB" d="M68.599,46.946c0.292-0.705,0.131-1.515-0.408-2.054l-10.88-10.879c-0.735-0.736-1.929-0.736-2.665,0
		l-10.88,10.879c-0.539,0.54-0.7,1.35-0.408,2.054c0.292,0.704,0.979,1.164,1.741,1.164h21.76
		C67.62,48.11,68.308,47.65,68.599,46.946z"/>
	<path fill="#1A5EAB" d="M43.766,25.798c0.368,0.368,0.851,0.552,1.333,0.552s0.965-0.184,1.333-0.552L68.19,4.039
		c0.539-0.539,0.7-1.35,0.408-2.054c-0.291-0.705-0.979-1.164-1.74-1.164h-21.76c-0.5,0-0.979,0.199-1.333,0.552l-10.88,10.88
		c-0.354,0.354-0.552,0.833-0.552,1.333s0.198,0.979,0.552,1.333L43.766,25.798z"/>
	<path fill="#FABE00" d="M105.837,32.528c-4.445,0-8.063-3.617-8.063-8.063c0-4.445,3.617-8.062,8.063-8.062
		s8.063,3.617,8.063,8.062C113.899,28.911,110.282,32.528,105.837,32.528z"/>
</g>
</svg>
